<svg width="226" height="50" viewBox="0 0 226 50" fill="none" xmlns="http://www.w3.org/2000/svg">
<path d="M65.9961 13.4375V36.5625H62.3725V13.4375H65.9961ZM87.2506 19.3438V36.5625H83.627V34.5312C83.0548 35.2397 82.3025 35.8022 81.3702 36.2188C80.4589 36.6147 79.484 36.8125 78.4458 36.8125C77.0682 36.8125 75.8286 36.5312 74.7268 35.9687C73.6461 35.4062 72.7879 34.5728 72.1522 33.4687C71.5374 32.3647 71.2304 31.0313 71.2304 29.4688V19.3438H74.8222V28.9375C74.8222 30.4792 75.2141 31.6666 75.9983 32.5C76.7821 33.3125 77.8524 33.7188 79.2087 33.7188C80.5647 33.7188 81.6349 33.3125 82.4191 32.5C83.2243 31.6666 83.627 30.4792 83.627 28.9375V19.3438H87.2506ZM113.869 19.0625C115.246 19.0625 116.475 19.3438 117.556 19.9063C118.658 20.4688 119.516 21.3021 120.131 22.4062C120.766 23.5104 121.084 24.8438 121.084 26.4062V36.5625H117.492V26.9375C117.492 25.3958 117.1 24.2188 116.316 23.4063C115.532 22.5729 114.462 22.1563 113.106 22.1563C111.75 22.1563 110.669 22.5729 109.864 23.4063C109.08 24.2188 108.688 25.3958 108.688 26.9375V36.5625H105.096V26.9375C105.096 25.3958 104.704 24.2188 103.92 23.4063C103.136 22.5729 102.066 22.1563 100.709 22.1563C99.3532 22.1563 98.2725 22.5729 97.467 23.4063C96.6832 24.2188 96.2909 25.3958 96.2909 26.9375V36.5625H92.6673V19.3438H96.2909V21.3125C96.8844 20.6042 97.6368 20.0521 98.5477 19.6563C99.4591 19.2604 100.434 19.0625 101.472 19.0625C102.871 19.0625 104.121 19.3542 105.223 19.9375C106.325 20.5208 107.173 21.3646 107.766 22.4688C108.296 21.4271 109.122 20.6042 110.245 20C111.368 19.375 112.576 19.0625 113.869 19.0625ZM128.174 17.0625C127.518 17.0625 126.967 16.8437 126.522 16.4062C126.077 15.9688 125.854 15.4271 125.854 14.7812C125.854 14.1354 126.077 13.5937 126.522 13.1562C126.967 12.7187 127.518 12.5 128.174 12.5C128.81 12.5 129.35 12.7187 129.796 13.1562C130.241 13.5937 130.463 14.1354 130.463 14.7812C130.463 15.4271 130.241 15.9688 129.796 16.4062C129.35 16.8437 128.81 17.0625 128.174 17.0625ZM129.954 19.3438V36.5625H126.331V19.3438H129.954ZM134.871 28.125C134.871 26.3542 135.221 24.8229 135.92 23.5313C136.619 22.2188 137.605 21.2187 138.876 20.5312C140.148 19.8229 141.599 19.4687 143.231 19.4687C145.202 19.4687 146.865 19.9792 148.221 21C149.599 22 150.52 23.2812 150.987 24.8438V13.4375H151.591V36.5625H150.987V31.375C150.52 32.9584 149.599 34.2603 148.221 35.2813C146.865 36.2813 145.202 36.7812 143.231 36.7812C141.599 36.7812 140.148 36.4375 138.876 35.75C137.605 35.0416 136.619 34.0416 135.92 32.75C135.221 31.4375 134.871 29.8958 134.871 28.125ZM150.987 28.125C150.987 26.5208 150.648 25.1146 149.97 23.9062C149.313 22.6771 148.391 21.7292 147.204 21.0625C146.039 20.375 144.714 20.0312 143.231 20.0312C141.663 20.0312 140.296 20.3542 139.13 21C137.986 21.6458 137.096 22.5833 136.46 23.8125C135.825 25.0208 135.507 26.4583 135.507 28.125C135.507 29.7917 135.825 31.2396 136.46 32.4688C137.096 33.6772 137.986 34.6041 139.13 35.25C140.296 35.8959 141.663 36.2188 143.231 36.2188C144.714 36.2188 146.039 35.8853 147.204 35.2187C148.391 34.5312 149.313 33.5834 149.97 32.375C150.648 31.1458 150.987 29.7292 150.987 28.125ZM165.223 36.7812C163.634 36.7812 162.204 36.4375 160.932 35.75C159.661 35.0416 158.655 34.0416 157.913 32.75C157.192 31.4375 156.832 29.8958 156.832 28.125C156.832 26.3542 157.192 24.8229 157.913 23.5313C158.655 22.2188 159.661 21.2187 160.932 20.5312C162.204 19.8229 163.634 19.4687 165.223 19.4687C166.813 19.4687 168.243 19.8229 169.515 20.5312C170.786 21.2187 171.782 22.2188 172.503 23.5313C173.223 24.8229 173.583 26.3542 173.583 28.125C173.583 29.8958 173.223 31.4375 172.503 32.75C171.782 34.0416 170.786 35.0416 169.515 35.75C168.243 36.4375 166.813 36.7812 165.223 36.7812ZM165.223 36.2188C166.601 36.2188 167.873 35.9272 169.038 35.3437C170.203 34.7397 171.147 33.8334 171.867 32.625C172.587 31.4166 172.948 29.9167 172.948 28.125C172.948 26.3333 172.587 24.8333 171.867 23.625C171.147 22.4167 170.203 21.5208 169.038 20.9375C167.873 20.3333 166.601 20.0312 165.223 20.0312C163.846 20.0312 162.564 20.3333 161.377 20.9375C160.212 21.5208 159.269 22.4271 158.548 23.6562C157.828 24.8646 157.468 26.3542 157.468 28.125C157.468 29.8958 157.828 31.3959 158.548 32.625C159.269 33.8334 160.212 34.7397 161.377 35.3437C162.564 35.9272 163.846 36.2188 165.223 36.2188ZM178.048 28.125C178.048 26.3542 178.398 24.8125 179.097 23.5C179.817 22.1875 180.803 21.1875 182.053 20.5C183.303 19.8125 184.723 19.4687 186.313 19.4687C188.495 19.4687 190.275 20.0208 191.653 21.125C193.051 22.2083 193.899 23.6354 194.196 25.4063H193.56C193.284 23.7396 192.49 22.4271 191.176 21.4687C189.862 20.5104 188.241 20.0312 186.313 20.0312C184.935 20.0312 183.664 20.3333 182.498 20.9375C181.354 21.5208 180.432 22.4167 179.733 23.625C179.034 24.8333 178.684 26.3333 178.684 28.125C178.684 29.9167 179.034 31.4166 179.733 32.625C180.432 33.8334 181.354 34.7397 182.498 35.3437C183.664 35.9272 184.935 36.2188 186.313 36.2188C188.241 36.2188 189.862 35.7397 191.176 34.7813C192.49 33.8228 193.284 32.5103 193.56 30.8437H194.196C193.899 32.6147 193.051 34.0522 191.653 35.1562C190.275 36.2397 188.495 36.7812 186.313 36.7812C184.723 36.7812 183.303 36.4375 182.053 35.75C180.803 35.0625 179.817 34.0625 179.097 32.75C178.398 31.4375 178.048 29.8958 178.048 28.125ZM204.969 36.7812C203.083 36.7812 201.557 36.4062 200.392 35.6562C199.247 34.9062 198.58 33.7709 198.389 32.25H199.025C199.152 33.5 199.713 34.4791 200.71 35.1875C201.727 35.875 203.157 36.2188 205.001 36.2188C205.933 36.2188 206.749 36.0416 207.448 35.6875C208.169 35.3334 208.72 34.8647 209.101 34.2812C209.483 33.6772 209.673 33.0313 209.673 32.3438C209.673 31.5937 209.451 30.9896 209.006 30.5312C208.582 30.0521 208.041 29.6875 207.385 29.4375C206.749 29.1875 205.869 28.9167 204.746 28.625C203.496 28.3125 202.479 28 201.695 27.6875C200.932 27.375 200.275 26.8958 199.724 26.25C199.194 25.6042 198.93 24.75 198.93 23.6875C198.93 22.9375 199.163 22.2396 199.629 21.5937C200.095 20.9479 200.731 20.4375 201.536 20.0625C202.362 19.6667 203.284 19.4687 204.301 19.4687C206.039 19.4687 207.437 19.8958 208.497 20.75C209.557 21.6042 210.129 22.7917 210.214 24.3125H209.578C209.514 23.0625 209.027 22.0417 208.116 21.25C207.226 20.4375 205.954 20.0312 204.301 20.0312C203.411 20.0312 202.606 20.1979 201.886 20.5312C201.165 20.8646 200.593 21.3125 200.169 21.875C199.767 22.4375 199.565 23.0417 199.565 23.6875C199.565 24.6042 199.809 25.3438 200.296 25.9063C200.784 26.4688 201.377 26.8854 202.076 27.1563C202.797 27.4271 203.75 27.7187 204.937 28.0312C206.145 28.3646 207.088 28.6667 207.766 28.9375C208.465 29.2083 209.059 29.625 209.546 30.1875C210.033 30.7292 210.277 31.4478 210.277 32.3438C210.277 33.1772 210.044 33.9375 209.578 34.625C209.112 35.2916 208.476 35.8228 207.671 36.2188C206.865 36.5938 205.965 36.7812 204.969 36.7812Z" fill="#5175D6"/>
<path d="M44.5007 0H6.35724C2.84623 0 0 2.79822 0 6.25V43.75C0 47.2018 2.84623 50 6.35724 50H44.5007C48.0117 50 50.8579 47.2018 50.8579 43.75V6.25C50.8579 2.79822 48.0117 0 44.5007 0Z" fill="#EEF1FB"/>
<path d="M38.2879 14.6523L24.1925 18.366C21.9316 18.9616 19.6076 21.2464 19.0017 23.4692L15.2243 37.3268C14.6184 39.5496 15.96 40.8686 18.2209 40.2729L32.3163 36.5592C34.5772 35.9635 36.9012 33.6787 37.5071 31.456L41.2845 17.5983C41.8904 15.3756 40.5488 14.0566 38.2879 14.6523Z" fill="#A8BAEB"/>
<path d="M32.6371 9.09665L18.5417 12.8104C16.2808 13.406 13.9568 15.6908 13.3509 17.9136L9.57347 31.7712C8.96758 33.994 10.3092 35.313 12.5701 34.7173L26.6656 31.0036C28.9264 30.4079 31.2504 28.1231 31.8563 25.9004L35.6337 12.0427C36.2396 9.81999 34.898 8.50098 32.6371 9.09665Z" fill="#5175D6"/>
</svg>
